HIERARCHY
ROOT hip
{
  OFFSET 0 0 0
  CHANNELS 6 Xposition Yposition Zposition Zrotation Yrotation Xrotation
  JOINT abdomen
  {
    OFFSET 0 20.6881 -0.73152
    CHANNELS 3 Zrotation Xrotation Yrotation
    JOINT chest
    {
      OFFSET 0 11.7043 -0.48768
      CHANNELS 3 Zrotation Xrotation Yrotation
      JOINT neck
      {
        OFFSET 0 22.1894 -2.19456
        CHANNELS 3 Zrotation Xrotation Yrotation
        JOINT head
        {
          OFFSET -0.24384 7.07133 1.2192
          CHANNELS 3 Zrotation Xrotation Yrotation
          JOINT leftEye
          {
            OFFSET 4.14528 8.04674 8.04672
            CHANNELS 3 Zrotation Xrotation Yrotation
            End Site
            {
              OFFSET 1 0 0
            }
          }
          JOINT rightEye
          {
            OFFSET -3.6576 8.04674 8.04672
            CHANNELS 3 Zrotation Xrotation Yrotation
            End Site
            {
              OFFSET 1 0 0
            }
          }
        }
      }
      JOINT rCollar
      {
        OFFSET -2.68224 19.2634 -4.8768
        CHANNELS 3 Zrotation Xrotation Yrotation
        JOINT rShldr
        {
          OFFSET -8.77824 -1.95073 1.46304
          CHANNELS 3 Zrotation Xrotation Yrotation
          JOINT rForeArm
          {
            OFFSET -28.1742 -1.7115 0.48768
            CHANNELS 3 Zrotation Xrotation Yrotation
            JOINT rHand
            {
              OFFSET -22.5879 0.773209 7.07136
              CHANNELS 3 Zrotation Xrotation Yrotation
              JOINT rThumb1
              {
                OFFSET -1.2192 -0.487915 3.41376
                CHANNELS 3 Zrotation Xrotation Yrotation
                JOINT rThumb2
                {
                  OFFSET -3.37035 -0.52449 3.41376
                  CHANNELS 3 Zrotation Xrotation Yrotation
                  End Site
                  {
                    OFFSET -1.78271 -1.18214 1.43049
                  }
                }
              }
              JOINT rIndex1
              {
                OFFSET -7.75947 0.938293 5.60832
                CHANNELS 3 Zrotation Xrotation Yrotation
                JOINT rIndex2
                {
                  OFFSET -2.54057 -0.884171 1.56538
                  CHANNELS 3 Zrotation Xrotation Yrotation
                  End Site
                  {
                    OFFSET -1.62519 -0.234802 1.16502
                  }
                }
              }
              JOINT rMid1
              {
                OFFSET -8.24714 1.18213 3.41376
                CHANNELS 3 Zrotation Xrotation Yrotation
                JOINT rMid2
                {
                  OFFSET -3.10165 -0.590103 1.0647
                  CHANNELS 3 Zrotation Xrotation Yrotation
                  End Site
                  {
                    OFFSET -2.48547 -0.328903 0.83742
                  }
                }
              }
              JOINT rRing1
              {
                OFFSET -8.82822 0.546677 1.51678
                CHANNELS 3 Zrotation Xrotation Yrotation
                JOINT rRing2
                {
                  OFFSET -2.60934 -0.819778 -0.0198488
                  CHANNELS 3 Zrotation Xrotation Yrotation
                  End Site
                  {
                    OFFSET -2.33842 -0.294052 0.168128
                  }
                }
              }
              JOINT rPinky1
              {
                OFFSET -8.27202 -0.0477905 -0.4584
                CHANNELS 3 Zrotation Xrotation Yrotation
                JOINT rPinky2
                {
                  OFFSET -1.82734 -0.647385 -0.700984
                  CHANNELS 3 Zrotation Xrotation Yrotation
                  End Site
                  {
                    OFFSET -1.69225 -0.51767 -0.607171
                  }
                }
              }
            }
          }
        }
      }
      JOINT lCollar
      {
        OFFSET 2.68224 19.2634 -4.8768
        CHANNELS 3 Zrotation Xrotation Yrotation
        JOINT lShldr
        {
          OFFSET 8.77824 -1.95073 1.46304
          CHANNELS 3 Zrotation Xrotation Yrotation
          JOINT lForeArm
          {
            OFFSET 28.1742 -1.7115 0.48768
            CHANNELS 3 Zrotation Xrotation Yrotation
            JOINT lHand
            {
              OFFSET 22.5879 0.773209 7.07136
              CHANNELS 3 Zrotation Xrotation Yrotation
              JOINT lThumb1
              {
                OFFSET 1.2192 -0.487915 3.41376
                CHANNELS 3 Zrotation Xrotation Yrotation
                JOINT lThumb2
                {
                  OFFSET 3.37035 -0.52449 3.41376
                  CHANNELS 3 Zrotation Xrotation Yrotation
                  End Site
                  {
                    OFFSET 1.78271 -1.18214 1.43049
                  }
                }
              }
              JOINT lIndex1
              {
                OFFSET 7.75947 0.938293 5.60832
                CHANNELS 3 Zrotation Xrotation Yrotation
                JOINT lIndex2
                {
                  OFFSET 2.54057 -0.884171 1.56538
                  CHANNELS 3 Zrotation Xrotation Yrotation
                  End Site
                  {
                    OFFSET 1.62519 -0.234802 1.16502
                  }
                }
              }
              JOINT lMid1
              {
                OFFSET 8.24714 1.18213 3.41376
                CHANNELS 3 Zrotation Xrotation Yrotation
                JOINT lMid2
                {
                  OFFSET 3.10165 -0.590103 1.0647
                  CHANNELS 3 Zrotation Xrotation Yrotation
                  End Site
                  {
                    OFFSET 2.48547 -0.328903 0.83742
                  }
                }
              }
              JOINT lRing1
              {
                OFFSET 8.82822 0.546677 1.51678
                CHANNELS 3 Zrotation Xrotation Yrotation
                JOINT lRing2
                {
                  OFFSET 2.60934 -0.819778 -0.0198488
                  CHANNELS 3 Zrotation Xrotation Yrotation
                  End Site
                  {
                    OFFSET 2.33842 -0.294052 0.168128
                  }
                }
              }
              JOINT lPinky1
              {
                OFFSET 8.27202 -0.0477905 -0.4584
                CHANNELS 3 Zrotation Xrotation Yrotation
                JOINT lPinky2
                {
                  OFFSET 1.82734 -0.647385 -0.700984
                  CHANNELS 3 Zrotation Xrotation Yrotation
                  End Site
                  {
                    OFFSET 1.69225 -0.51767 -0.607171
                  }
                }
              }
            }
          }
        }
      }
    }
  }
  JOINT rButtock
  {
    OFFSET -8.77824 4.35084 1.2192
    CHANNELS 3 Zrotation Xrotation Yrotation
    JOINT rThigh
    {
      OFFSET 0 -1.70687 -2.19456
      CHANNELS 3 Zrotation Xrotation Yrotation
      JOINT rShin
      {
        OFFSET 0 -36.8199 0.73152
        CHANNELS 3 Zrotation Xrotation Yrotation
        JOINT rFoot
        {
          OFFSET 0.73152 -45.1104 -5.12064
          CHANNELS 3 Zrotation Xrotation Yrotation
          End Site
          {
            OFFSET -1.1221 -3.69964 12.103
          }
        }
      }
    }
  }
  JOINT lButtock
  {
    OFFSET 8.77824 4.35084 1.2192
    CHANNELS 3 Zrotation Xrotation Yrotation
    JOINT lThigh
    {
      OFFSET 0 -1.70687 -2.19456
      CHANNELS 3 Zrotation Xrotation Yrotation
      JOINT lShin
      {
        OFFSET 0 -36.8199 0.73152
        CHANNELS 3 Zrotation Xrotation Yrotation
        JOINT lFoot
        {
          OFFSET -0.73152 -45.1104 -5.12064
          CHANNELS 3 Zrotation Xrotation Yrotation
          End Site
          {
            OFFSET 1.1221 -3.69964 12.103
          }
        }
      }
    }
  }
}
MOTION
Frames:	4
Frame Time:	0.00833333
222.0563 81.64495 -188.66357 -5.4555397 -21.838099 8.119897 3.31035 -1.5242516 7.077255 1.3376917 -8.019544 2.0499368 -7.5139265 16.480011 -3.1731513 9.816047 -17.300758 -4.082145 -0.06332516 -0.00637381 0.026185509 -0.09606713 -0.06640129 0.03167123 0.005196136 0.043782488 -0.026016401 79.18579 36.465103 3.4815109 -27.43472 -28.35961 64.80162 0.09072495 0.77309793 0.20599683 -0.001430281 -0.057552673 -0.09731788 -0.018124375 0.049082816 -0.05304989 0.0018110878 -6.8729605e-05 0.047280375 7.720736 5.4475155 0.4395318 -0.010338133 -0.019929605 -0.039869417 2.8980684 1.0039682 0.058832992 -0.0010727071 0.04151196 -0.023148809 10.275273 0.7932227 0.0110280495 -0.019699428 0.00944845 -0.01041007 2.2721772 -0.74782634 -0.24256647 -0.028089315 -0.027539754 -0.015471142 -81.011894 23.365593 7.638895 28.449516 -36.833977 -77.678894 0.073762104 2.2977319 -0.22535643 0.05391213 -0.036775623 -0.0060646813 -0.04598584 0.025033355 0.025663463 -0.052595694 -0.013289565 -0.0018954629 -7.712224 5.503887 -0.35342753 -0.016019752 -0.032677736 0.068228245 -2.9755607 0.970685 -0.026769714 0.02719621 0.053314928 -0.022535665 -10.288712 0.69121116 -0.069866344 -0.029772863 0.019006487 0.033786755 -2.1820607 -0.7530547 0.16647151 0.07731147 -0.017857388 -0.033696253 -0.7556844 -8.930453 -6.504818 -0.14399625 34.029808 1.1458946 -7.4955096 -19.2468 -15.790398 0.009465299 0.06429264 0.056120265 1.3428684 -28.557106 -3.0036433 1.4707816 48.344173 -1.8186694 0.48994592 -9.894701 -0.5289323
222.97267 81.64499 -189.75487 -5.455817 -21.839405 8.119917 3.3104765 -1.5241232 7.0772767 1.3377625 -8.019791 2.0499573 -7.5141244 16.48019 -3.173037 9.816279 -17.301014 -4.0818877 -0.06332561 -0.006371199 0.026185144 -0.09606644 -0.066402845 0.031671286 0.005196013 0.043783195 -0.026016122 79.18565 36.465065 3.481789 -27.434694 -28.359509 64.80145 0.09072292 0.77284443 0.2059643 -0.0014302781 -0.057552118 -0.09731857 -0.018125184 0.049083143 -0.053051792 0.0018129984 -6.892497e-05 0.047280002 7.720735 5.4475155 0.43953094 -0.010337565 -0.019929882 -0.03986866 2.8980699 1.0039678 0.058833707 -0.001071751 0.041511193 -0.023147516 10.275272 0.79322225 0.011027197 -0.01970003 0.0094498275 -0.010410369 2.2721765 -0.747826 -0.24256754 -0.028091356 -0.027539497 -0.015471389 -81.01241 23.365368 7.639134 28.44952 -36.834156 -77.67918 0.07376217 2.298166 -0.22542118 0.053911332 -0.036776986 -0.0060656895 -0.045984566 0.025033211 0.025662823 -0.0525962 -0.013292065 -0.0018949561 -7.712222 5.5038886 -0.35342914 -0.016019262 -0.032677673 0.06822763 -2.9755611 0.97068435 -0.02677024 0.027195862 0.05331647 -0.022534216 -10.28871 0.69120985 -0.06986456 -0.029772686 0.01900565 0.033784084 -2.1820612 -0.7530519 0.1664708 0.07731053 -0.017857786 -0.033697166 -0.75563174 -8.930358 -6.5049305 -0.14400703 34.029716 1.1459078 -7.495694 -19.247108 -15.790547 0.009466495 0.06429262 0.0561196 1.3427562 -28.55714 -3.0034857 1.4707768 48.344337 -1.8186707 0.4899378 -9.894648 -0.52907825
223.88904 81.64504 -190.84618 -5.456092 -21.84062 8.119952 3.3105972 -1.5240077 7.0773087 1.3378363 -8.020011 2.0499787 -7.51431 16.480362 -3.1729267 9.8164835 -17.301262 -4.0816374 -0.063326135 -0.0063685374 0.02618588 -0.09606596 -0.0664037 0.03167154 0.0051944214 0.043784082 -0.02601687 79.18552 36.46506 3.482056 -27.434673 -28.359407 64.80127 0.09072131 0.772608 0.20593284 -0.0014302746 -0.057551365 -0.09731731 -0.018125154 0.049083848 -0.053053226 0.0018151063 -7.000346e-05 0.04727915 7.720737 5.4475164 0.43952906 -0.010337146 -0.019929197 -0.039869 2.8980677 1.0039686 0.058832537 -0.0010713984 0.041512143 -0.023145348 10.275271 0.7932222 0.011026448 -0.019700421 0.009451316 -0.010410779 2.272176 -0.74782616 -0.24256733 -0.02809212 -0.027539246 -0.0154716335 -81.0129 23.365152 7.6393657 28.449526 -36.83434 -77.67944 0.07375903 2.2985828 -0.22548209 0.05391181 -0.036778357 -0.0060647624 -0.045982905 0.025032872 0.025661394 -0.052596822 -0.013293658 -0.0018949537 -7.712222 5.5038886 -0.3534302 -0.016019559 -0.03267659 0.06822685 -2.9755616 0.9706838 -0.026770907 0.027195921 0.053317893 -0.02253266 -10.2887125 0.6912093 -0.06986374 -0.02977252 0.019004118 0.033781625 -2.182061 -0.7530497 0.16647059 0.07730841 -0.01785775 -0.033697974 -0.7556035 -8.930284 -6.5050225 -0.1440153 34.029636 1.1459166 -7.495828 -19.247396 -15.790678 0.009468198 0.064293966 0.0561196 1.3426394 -28.557152 -3.0033724 1.4707778 48.34448 -1.818678 0.48993012 -9.894591 -0.52922755
224.80539 81.64506 -191.93747 -5.45635 -21.841747 8.119975 3.3107128 -1.5239099 7.0773535 1.3379068 -8.020212 2.050003 -7.514488 16.480528 -3.172828 9.816679 -17.301489 -4.0814133 -0.06332621 -0.006366092 0.026185844 -0.096064806 -0.06640469 0.031671595 0.005193622 0.043783907 -0.026016496 79.18536 36.465065 3.4823136 -27.434643 -28.359297 64.80111 0.09072 0.77240777 0.205912 -0.0014299434 -0.057551272 -0.097316936 -0.018125122 0.049083985 -0.053054824 0.0018168213 -7.059145e-05 0.04727825 7.720738 5.447516 0.43952867 -0.010336881 -0.019929174 -0.03986875 2.8980682 1.0039696 0.058832537 -0.0010703919 0.041512385 -0.02314368 10.275271 0.793222 0.011025128 -0.019701252 0.009453344 -0.010411193 2.2721746 -0.7478259 -0.24256738 -0.028092623 -0.027539212 -0.015470758 -81.01339 23.364967 7.639566 28.44954 -36.83451 -77.67968 0.073755 2.2989872 -0.22554308 0.053911917 -0.036780342 -0.006064652 -0.045981653 0.025032464 0.025659623 -0.052597433 -0.013295703 -0.0018951027 -7.712224 5.503891 -0.35343134 -0.016018696 -0.03267518 0.06822668 -2.9755611 0.9706834 -0.026771706 0.027195077 0.053319383 -0.022531115 -10.28871 0.6912078 -0.06986235 -0.029772803 0.01900359 0.033778768 -2.1820605 -0.7530478 0.1664708 0.07730762 -0.01785843 -0.033698577 -0.75560033 -8.930207 -6.5051117 -0.14402497 34.029568 1.1459254 -7.495976 -19.247654 -15.790791 0.009469092 0.06429451 0.056119446 1.3425378 -28.557158 -3.0032482 1.4707781 48.344612 -1.8186845 0.48991606 -9.894536 -0.52940065
